<svg version="1.2" xmlns="http://www.w3.org/2000/svg" viewBox="0 0.28635360946009314 946.7447991412379 881.7136463905399" width="947" height="882">
	<title>Paxton_Wand_FINAL-2</title>
	<defs>
		<radialGradient id="g1" cx="0" cy="0" r="1" gradientUnits="userSpaceOnUse" gradientTransform="matrix(399.418,-211.069,167.47,286.27,481.73,425.267)">
			<stop offset="0" stop-color="#0a4c74"/>
			<stop offset="1" stop-color="#04243e"/>
		</radialGradient>
		<linearGradient id="g2" x2="1" gradientUnits="userSpaceOnUse" gradientTransform="matrix(62.928,-15.644,21.093,84.846,437.895,306.926)">
			<stop offset="0" stop-color="#e89419"/>
			<stop offset="1" stop-color="#ffd104"/>
		</linearGradient>
		<linearGradient id="g3" x2="1" gradientUnits="userSpaceOnUse" gradientTransform="matrix(62.307,-17.677,23.844,84.044,522.439,297.089)">
			<stop offset="0" stop-color="#e89419"/>
			<stop offset="1" stop-color="#ffd104"/>
		</linearGradient>
	</defs>
	<style>
		.s0 { fill: #cca82c } 
		.s1 { fill: url(#g1) } 
		.s2 { fill: #e5e7e8 } 
		.s3 { fill: #aab2c0 } 
		.s4 { fill: #7d8693 } 
		.s5 { fill: #000000 } 
		.s6 { fill: #5e6b77 } 
		.s7 { fill: #fcb712 } 
		.s8 { fill: #ffd104 } 
		.s9 { fill: #985123 } 
		.s10 { fill: #e89419 } 
		.s11 { fill: #fefefe } 
		.s12 { fill: url(#g2) } 
		.s13 { fill: url(#g3) } 
		.s14 { fill: none;stroke: #000000;stroke-miterlimit:10;stroke-width: 2.2 } 
		.s15 { fill: none;stroke: #5e6b77;stroke-miterlimit:10;stroke-width: 2.2 } 
		.s16 { fill: none;stroke: #7d8693;stroke-miterlimit:10;stroke-width: 12.6 } 
	</style>
	<g id="Layer 2">
		<path id="&lt;Path&gt;" class="s0" d="m693.82 767.36c0 14.75-74.89 26.7-167.27 26.7-92.39 0-167.28-11.95-167.28-26.7 0-14.74 74.89-26.7 167.28-26.7 92.38 0 167.27 11.96 167.27 26.7z"/>
		<g id="&lt;Group&gt;">
			<g id="&lt;Group&gt;">
				<g id="&lt;Group&gt;">
					<path id="&lt;Path&gt;" class="s1" d="m850.17 231.3c52.96 20.82 54.17 111.36 17.66 143.33-65.23 57.1-81.28 95.45-78.93 165.58 2.36 70.3-117.53 221.04-193.23 193.07-98.65-36.44-164.59-26.65-243.29 12.34-75.21 37.25-181.53-18.52-184.57-72.82-2.2-39.27-36.93-73.78-73.53-89.24-47.57-20.09-62.68-86.45-18.97-134.82 49.18-54.42 81.39-117.71 99.82-196.73 17.61-75.48 94.42-122.66 168.19-121.19 61.52 1.23 77.79-20.64 111.42-38.44 142.48-75.36 238.85-54.36 274.19 21.14 31.34 66.96 40.98 86.23 121.24 117.78z"/>
				</g>
			</g>
		</g>
		<path id="&lt;Path&gt;" class="s2" d="m270.92 491.61l2.68-23.72-22.57 16.83-23.72 50.88 0.76 26.65c-5.02 24.58-12.98 45.59-16.75 56.94-3.76 11.35 7.4 9.32 19.32-11.15 11.07-19.03 24.85-67.56 30.96-90.27z"/>
		<path id="&lt;Path&gt;" class="s2" d="m264.03 486.25c0 0-2.29 14.92-3.06 24.87-0.76 9.94 2.68 6.5 4.59 4.97 1.92-1.53 17.6-22.57 17.6-22.57 0 0 0.38 8.42-0.76 16.83-1.15 8.42 1.53 9.18 1.53 9.18l40.16-52.78-27.54-4.98-41.31-17.98-16.45 10.72-14.54 36.33-16.18 69.2c-5.81 24.41-14.44 45.16-18.58 56.38-4.13 11.22 7.1 9.55 19.67-10.53 15.48-24.73 37.42-101.17 37.42-101.17z"/>
		<path id="&lt;Path&gt;" class="s2" d="m315.56 456.44c-13.25 0.21-33.84-6.73-49.62-26.14-9.28-11.42-22.76-11.64-38.18 10.99-11.53 16.93-21.19 32.54-32.14 86.84-6.69 33.2-17.1 62.93-35.33 81.28 20.12 1.89 43.36-20.9 56.22-77.26 12.67-55.51 25.46-74.86 33.6-79.65 3.45-2.84 7.26-3.56 13.78 2.95 6.52 6.51 37.19 20.5 57.17 13.14z"/>
		<path id="&lt;Path&gt;" class="s2" d="m282.4 514.85c-5.48 21.97-18.63 72.04-29.66 91.76-11.56 20.67-22.69 22.89-19.12 11.48 3.58-11.41 11.17-32.56 15.77-57.22l14.64-50.61 22.1-35.58 6.31 0.58-5.74 31.56z"/>
		<path id="&lt;Path&gt;" class="s3" d="m283.96 527.94q-0.65 0-1.24-0.2c-2.92-0.91-4.08-6.2-0.32-31.25-13.32 19.39-18.24 24.79-21.66 23.29-3.39-1.5-2.44-8.78 2.86-31.61-15.7 18.05-22.04 22.86-25.26 20.84-3.16-2-9.05-10.16 16.73-42.54l0.02 0.01c-16.73 28.72-14.22 36.05-14.09 38.29 2-0.85 7.74-5.23 24-24.64l6.4-7.63-2.38 9.67c-1.73 7.06-6.77 27.55-6.17 32.84 2.95-2.13 9.88-11.36 20.64-27.51l6.05-9.07-1.84 10.74c-4.03 23.48-3.95 31.1-3.43 33.55 1.61-1.55 5.49-6.89 13.97-25.15l4.19 1.95c-11.2 24.13-15.53 28.36-18.47 28.42z"/>
		<g id="&lt;Group&gt;">
			<path id="&lt;Path&gt;" class="s3" d="m246.59 503.51c-2.06 13.41-6.21 26.33-10.78 39.06-4.41 12.77-8.8 25.55-13.98 38.03 0 0-0.3-0.11-0.3-0.11 4.26-12.8 8.06-25.75 11.87-38.69 3.57-13.04 7.5-25.92 12.89-38.37 0 0 0.3 0.08 0.3 0.08z"/>
		</g>
		<g id="&lt;Group&gt;">
			<path id="&lt;Path&gt;" class="s3" d="m242.62 579.95c3.29-10.61 6.06-21.38 8.93-32.1 2.61-10.85 5.59-21.51 10.04-31.8 0 0 0.3 0.08 0.3 0.08-0.25 2.81-0.69 5.57-1.22 8.31-1.45 8.25-4.01 16.2-6.69 24.12q-2.57 7.94-5.25 15.84c-1.85 5.25-3.66 10.52-5.81 15.66z"/>
		</g>
		<g id="&lt;Group&gt;">
			<path id="&lt;Path&gt;" class="s3" d="m206.53 566.48c4.7-14.75 7.79-29.84 10.99-44.97 4.76-20.15 10.09-40.58 20.67-58.63 2.54-4.33 7.08-10 10.64-11.94 3.03-2.76 7.52-3.29 11.04-1.07 2.28 1.26 4.07 3.05 5.86 4.8 5.32 4.37 11.79 7.34 18.31 9.92 11.69 4.36 24.66 7.49 37.02 4-12.14 4.93-25.86 2.5-37.98-1.31-6.95-2.45-13.91-5.21-19.76-9.86-2.37-2.15-5.41-5.31-8.73-4.99-1.13 0.09-2.33 0.94-3.45 1.81-3.95 2.48-6.91 6.79-9.39 10.81-2.57 4.29-4.8 8.86-6.83 13.52-4 9.38-7.3 19.08-10.25 28.86-6.07 19.61-9.99 40.09-18.14 59.05z"/>
		</g>
		<path id="&lt;Path&gt;" class="s3" d="m634.13 398.66c6.88-6.89 16.64-17.22 19.5-23.53l32.9 25.63c-4.78 10.52-18.36 25.25-29.26 36.15z"/>
		<path id="&lt;Path&gt;" class="s4" d="m677.79 414.47c-2.47 4.6-8.82 4.72-13.33 3.74-10.44-1.91-27.23-15.44-22.2-27.22 1.05-1.56 2.21-2.76 3.42-4.14-0.73 2.1-2.24 4.04-2.36 6.26-0.16 11.35 24.52 29.72 34.47 21.36z"/>
		<path id="&lt;Path&gt;" class="s4" d="m747.49 326.91c5.13 5.69 8.21 5.28 1.17 21.36-7.04 16.09-30.62 40.37-44.27 49.32-10.34 6.78-27.87 7.82-41.75-5.37-13.88-13.2-17.03-21.71-11.58-30.5 5.44-8.8 31.46-48.02 35.45-55.73 3.99-7.71 16.68-12.84 24.53-8.06 7.85 4.79 36.45 28.98 36.45 28.98z"/>
		<path id="&lt;Path&gt;" class="s5" d="m702.72 302.51c4.05-5.81 16.43-4.16 27.64 3.67 11.2 7.83 17 18.89 12.94 24.7-4.06 5.81-16.43 4.16-27.64-3.67-11.21-7.83-17-18.89-12.94-24.7z"/>
		<g id="&lt;Group&gt;">
			<path id="&lt;Path&gt;" class="s6" d="m661.6 378.67c-2.66-5.05-2.28-10.49 0.87-12.15 3.14-1.66 7.86 1.09 10.52 6.14 2.67 5.06 2.28 10.5-0.86 12.16-3.15 1.66-7.86-1.09-10.53-6.15z"/>
		</g>
		<path id="&lt;Path&gt;" class="s5" d="m752.59 262.97c-0.52 3.87-4.35 9.23-10.66 12.1-6.31 2.87-15.87 21.8-13.77 29.26 2.1 7.46 3.83 14.73 15.49 13.96 11.67-0.76 23.53-10.33 23.53-10.9 0-0.57 6.31-27.92 6.31-27.92l-15.68-15.31z"/>
		<path id="&lt;Path&gt;" class="s3" d="m782.91 282.14l-20.51-19.36-9.81 0.19 17.27 18.03 10.32 6.88z"/>
		<path id="&lt;Path&gt;" class="s6" d="m744.18 261.49l-13.34-18.75c-23.34 3.06-38.64 33.67-31.37 48.97 8.42 17.73 24.87 31.36 38.83 34.61 0 0-11.67-4.39-13.58-19.7-1.91-15.3 9.51-35.95 19.46-45.13z"/>
		<path id="&lt;Path&gt;" class="s2" d="m344.79 483.93c0 0 8.78 71.88 4.59 98.12-3.4 21.3-12.22 26.68-12.74 15.81-0.52-10.88-0.66-31.34-4.47-53.86l-2.72-35.18z"/>
		<path id="&lt;Path&gt;" class="s2" d="m358.08 480.97c0 0 11.11 71.55 7.77 97.91-2.7 21.4-11.35 27.07-12.22 16.22-0.88-10.85-1.67-31.3-6.21-53.69l-1.53-49.03z"/>
		<path id="&lt;Compound Path&gt;" class="s7" d="m674.05 485.74c-31.61 8.23-156.93 44.7-156.93 44.7 0 0-24.78 5.69-33.87 8.99l-2.54 1.52-0.41-0.38c-41.88-122.45-91.22-231.34-91.22-231.34l-0.08-0.05 1.4-1.99c61.93-20.01 152.71-35.32 197.04-29.75l4.73 0.44c0 0 57.62 108.69 81.88 207.86z"/>
		<path id="&lt;Path&gt;" class="s8" d="m307.14 424.71l51.12-71.37 30.74-44.16 0.08 0.05c0 0 49.34 108.89 91.22 231.34l0.41 0.38c0 0 0.9-0.7 0.47 2.81l-97.87 105.46c-2.32-6.34-74.66-221.07-76.17-224.51z"/>
		<path id="&lt;Compound Path&gt;" class="s9" d="m585.27 595.23c28.72-28.09 81.09-96.2 88.93-109.02 0.09-0.15-0.11-0.3-0.15-0.47-31.61 8.23-60.74 16.14-95.5 25.96l-96.14 27.74q0.02-0.09 0.03-0.17l-0.19 0.22-0.97 0.29q0.1 0.23 0.35 0.4l-98.5 109.14c47.23-11.01 167.09-44 202.14-54.09z"/>
		<path id="&lt;Path&gt;" class="s10" d="m467.84 533.33c1.33 4.48 0.15 8.79-2.64 9.62-2.79 0.83-6.13-2.14-7.47-6.62-1.33-4.49-0.15-8.79 2.64-9.62 2.79-0.83 6.14 2.13 7.47 6.62z"/>
		<path id="&lt;Path&gt;" class="s10" d="m391.98 338.04c1.33 4.48 0.15 8.79-2.64 9.62-2.79 0.83-6.14-2.14-7.47-6.62-1.33-4.49-0.15-8.79 2.64-9.62 2.79-0.83 6.13 2.13 7.47 6.62z"/>
		<path id="&lt;Path&gt;" class="s10" d="m331.75 422.26c1.33 4.48 0.15 8.79-2.64 9.62-2.79 0.83-6.14-2.13-7.47-6.62-1.33-4.48-0.15-8.79 2.64-9.62 2.79-0.83 6.13 2.13 7.47 6.62z"/>
		<path id="&lt;Path&gt;" class="s10" d="m396.82 613.05c1.33 4.49 0.15 8.8-2.64 9.63-2.8 0.82-6.14-2.14-7.47-6.62-1.33-4.49-0.15-8.8 2.64-9.63 2.79-0.83 6.13 2.14 7.47 6.62z"/>
		<path id="&lt;Path&gt;" class="s6" d="m358.66 410.11c0.02-0.01 0.08-0.01 0.1-0.02 14.25-3.7 32.79 10.36 42.28 31.94 9.6 21.82 1.92 48.57-11.96 54.67 0 0-12.75 8.85-25.81 7.55l0.02-0.04c4.03-0.04 7.77-1.12 10.97-3.31 12.71-8.75 11.77-32.2-2.1-52.36-13.37-19.46-36.11-28.82-49.11-21.59l-2.51 1.05c4.31-5.18 22.49-15.47 38.12-17.89z"/>
		<path id="&lt;Path&gt;" class="s4" d="m372.16 448.54c13.87 20.16 14.81 43.61 2.1 52.36-3.2 2.19-6.94 3.27-10.97 3.31l-0.01-0.02c-2.63 0.05-5.38-0.36-8.19-1.18l-8.35-3.19c2.84-2.68 5.52-5.07 7.94-7.19l4.92 0.51c2.08-0.19 4.02-0.82 5.68-1.96 3.44-2.38 5.24-6.52 5.46-11.59 0.37-7.21-2.45-16.27-8.23-24.67-3.09-4.5-6.83-8.28-10.75-11.18-8.55-6.29-17.98-8.38-23.69-4.46-5.48 3.76-6.12 12.12-3.11 21.49q-3.02 2.75-6.39 5.98c-5.4-12.52-6.55-24.76-2.25-32.87 1.27-2.45 3.05-4.5 5.35-6.08q0.66-0.45 1.38-0.85c13-7.23 35.74 2.13 49.11 21.59z"/>
		<path id="&lt;Path&gt;" class="s5" d="m370.56 479.59h0.18c-0.22 5.07-2.02 9.21-5.46 11.59-1.66 1.14-3.6 1.77-5.68 1.96l-4.92-0.51c1.45-1.31 2.82-2.49 4.09-3.59 7.45-6.35 11.79-9.45 11.79-9.45z"/>
		<path id="&lt;Path&gt;" class="s5" d="m331.2 455.3q-2.87 2.42-6.24 5.47c-3.01-9.37-2.37-17.73 3.11-21.49 5.46-3.75 14.34-2 22.58 3.68q0.56 0.38 1.11 0.78l-0.13 0.2c-4.34-1.26-9.01 2.25-9.01 2.25 0 0-4.46 3.18-11.42 9.11z"/>
		<path id="&lt;Path&gt;" class="s11" d="m556.89 288.83c19.73 0 38.3 19.49 41.46 43.53 2.77 21.16-7.26 38.79-23.11 42.75 3.93-2.76-6.1-7.14-6.1-7.14 0.66-2.97 12.33-10.72 11.9-14.14-1.9-14.32-13.78-25.91-26.54-25.91-12.75 0-21.56 11.62-19.66 25.94l-0.34 0.19c-3.86-6.38-6.56-13.78-7.6-21.66-3.17-24.06 10.26-43.56 29.99-43.56z"/>
		<path id="&lt;Path&gt;" class="s11" d="m472.93 299.38c19.76 0.66 37.72 20.78 40.11 44.96 1.86 18.82-6.24 34.55-19.25 40.27 2.48-4.45-8.43-2.6-9.01-8.38-1.42-14.47-1.22-35.6-14.57-35.99-12.83-0.35-22.28 10.16-21.7 23.8-3.7-6.55-6.18-14.1-6.99-22.09-2.41-24.15 11.66-43.23 31.41-42.57z"/>
		<g id="&lt;Group&gt;">
			<path id="&lt;Path&gt;" class="s12" d="m473.02 299.32c-14.93-0.46-26.67 10.17-30.63 25.7 5-11.7 15.12-19.31 27.56-18.95 19.22 0.56 36.62 19.86 38.86 43.11 1.29 13.44-2.76 25.26-10.13 32.72 10.27-7.16 16.29-21.24 14.7-37.65-2.35-24.21-20.43-44.32-40.36-44.93z"/>
		</g>
		<g id="&lt;Group&gt;">
			<path id="&lt;Path&gt;" class="s13" d="m557.27 288.34c-14.92 0.04-26.29 11.05-29.74 26.7 4.61-11.86 14.47-19.81 26.9-19.86 19.2-0.07 37.19 18.62 40.18 41.78 1.72 13.39-1.94 25.33-9.05 33.03 10.01-7.5 15.57-21.77 13.45-38.11-3.13-24.11-21.82-43.6-41.74-43.54z"/>
		</g>
		<path id="&lt;Path&gt;" class="s11" d="m576.88 396.51l0.01 0.03c-0.08 6.3-5.63 18.28-5.63 18.28 0 0-0.4 0.09-1.11 0.24-0.24 0.06-0.48 0.11-0.78 0.18-5.83 1.35-28.71 6.07-37.6 6.47-10.69 0.49-32.07-11.81-32.07-11.81l4.57-0.81z"/>
		<path id="&lt;Path&gt;" class="s9" d="m482.02 416.67c5.67-8.43 16.66-16.4 27.23-15.17-8.97 5.59-17.03 11.95-27.23 15.17z"/>
		<path id="&lt;Path&gt;" class="s9" d="m540.21 448.25c9.09 0.74 15.73 0.13 24.3-1.96-4.57 8.45-18.37 9.59-24.3 1.96z"/>
		<path id="&lt;Path&gt;" class="s5" d="m566.97 415.34c-8.15 1.86-26.09 5.6-33.56 6.04-11.09 0.66-33.61-11.58-33.61-11.58l-6.02 1.23c0.54 11.81 30.21 36.93 63.68 24.5 15.72-4.63 17.15-28.44 17.15-28.44-1.1 4.22-4.85 6.83-7.64 8.25z"/>
		<path id="&lt;Path&gt;" class="s5" d="m580.62 342.73c-3.76-15.27-16.97-25.14-29.5-22.06-12.52 3.09-19.63 17.97-15.87 33.24q0.41 1.63 0.95 3.17c4.95 7.74 11.85 14.48 20.93 18.55l-0.73 0.55c2.74 0.51 5.56 0.47 8.35-0.22 12.53-3.08 19.64-17.96 15.87-33.23z"/>
		<path id="&lt;Path&gt;" class="s5" d="m498.96 351.44c-4.51-15.72-19.4-25.23-33.25-21.26-13.13 3.77-20.61 18.3-17.51 33.19 5.39 10.2 13.94 20.34 26.44 24.59 2.46 0.11 4.95-0.17 7.41-0.87 13.85-3.98 21.42-19.94 16.91-35.65z"/>
		<path id="&lt;Path&gt;" class="s7" d="m548.21 376.25c0 0 36.18-12.76 45.6-4.32l-28.18 13.8z"/>
		<path id="&lt;Path&gt;" class="s7" d="m461.31 392.35c0 0 34.18-17.43 44.58-10.29l-26.13 17.41z"/>
		<g id="&lt;Group&gt;">
			<path id="&lt;Path&gt;" class="s5" d="m610.87 562.17l-3.58-13.84c-1.87-7.25-9.11-11.76-16.45-10.24l-103.38 21.71c-5.33 1.1-10.08 4.07-13.42 8.37l-13.93 17.97 7.43 25.2 22.38-17.45 111.34-26.72z"/>
			<path id="&lt;Path&gt;" class="s6" d="m586.55 588.02l24.32-25.85-125 26.37-18.33 22.8z"/>
			<path id="&lt;Path&gt;" class="s3" d="m568.08 576.69l25.97-5.3-4.78 87.59-24.44 0.18-9.52-22.22z"/>
			<path id="&lt;Path&gt;" class="s5" d="m544.4 683.59l2.47-98.02 21.28-8.88-3.32 82.47z"/>
			<path id="&lt;Path&gt;" class="s3" d="m513.25 587.97l-24.87 5.2-2.84 60.98 24.3 2.45 11.56-21.25z"/>
			<path id="&lt;Path&gt;" class="s5" d="m530.84 685.65l3.64-100.32-21.23 2.64-3.41 68.63z"/>
			<path id="&lt;Path&gt;" class="s5" d="m609.54 731.68c17.67 16.03 26.56 27.69 24.08 36.91-2.49 9.22-22.81 10.81-42.99 6.38-22.21-4.89-51.63-18.23-54.39-20.86-2.75-2.63-3.38-6.39 1.86-12.98 5.24-6.59 30.52-9.33 30.52-9.33l21.76-15.06 15.22 5.59z"/>
			<g id="&lt;Group&gt;">
				<path id="&lt;Path&gt;" class="s11" d="m609.5 771.36c-6.17 0.14-12.63-0.53-18.6-2.11-16.19-4.27-39.72-12.76-56.48-21.57 0.34-1.3 1.03-2.78 2.15-4.46 16.41 8.66 39.62 17.04 55.59 21.25 15.72 4.14 32.3 1.31 38.65-3.7q1.15-0.91 1.78-1.84 1.22 2.95 1.4 5.62-0.06 0.05-0.12 0.1c-5.24 4.13-14.43 6.48-24.37 6.71z"/>
			</g>
			<path id="&lt;Path&gt;" class="s3" d="m600.82 688.43l8.51 43.15c-3.06-1.53-6.1-3.06-8.94-4.55-12.16-6.4-20.02 4.04-25.85 8.76-1.74-31.22-3.84-81.66-3.84-81.66l0.42-1.74q0.74 0.14 1.16 0.25c0 0.03 0.03 0.01 0.03 0.01 3.95 1.95 8.61 2.06 12.62-0.1 1.48-0.8 2.76-1.84 3.78-3.07 2.44 0.33 6.3 5.82 6.3 5.82z"/>
			<path id="&lt;Path&gt;" class="s4" d="m538.74 710.43c0.62-4.46 1.29-3.77 1.99-8.32 0.97-6.33 1.99-12.56 2.99-18.26 1.94-10.7 3.94-19.46 5.72-23.11 2.14-4.42 5.56-6.77 9.09-7.91 4.91-1.59 10.06-0.94 12.59-0.44l-0.42 1.74c0 0 2.1 50.44 3.84 81.66-1.01 0.84-1.97 1.49-2.88 1.85-6.07 2.36-33.65 7.88-33.65 7.88 0 0-1.7-0.69-3.85 0.41 0.13-1.15 1.2-10.2 2.77-22.18 0.56-4.15 1.15-8.66 1.81-13.32z"/>
			<path id="&lt;Path&gt;" class="s3" d="m556.39 727.96c0.52 4.16-1.16 7.79-3.74 8.11-2.59 0.33-5.11-2.78-5.63-6.94-0.52-4.15 1.16-7.78 3.75-8.11 2.58-0.32 5.1 2.79 5.62 6.94z"/>
			<path id="&lt;Path&gt;" class="s6" d="m580.67 729.97c0 0 16.56-27.37 28.87 1.71 0 0-6.56-4.06-13.29-5.7-5.04-1.22-5.82-1.06-15.58 3.99z"/>
			<path id="&lt;Path&gt;" class="s5" d="m459.32 741.78c-19.66 17-29.64 29.47-27.17 39.58 2.46 10.11 24.56 12.36 46.65 8.05 24.32-4.74 56.7-18.52 59.77-21.31 3.07-2.8 3.85-6.88-1.69-14.19-5.54-7.31-32.99-10.94-32.99-10.94l-23.31-16.96-16.73 5.69z"/>
			<g id="&lt;Group&gt;">
				<path id="&lt;Path&gt;" class="s11" d="m458.34 785c6.72 0.31 13.77-0.26 20.32-1.82 17.73-4.23 43.58-12.88 62.05-22.04-0.33-1.43-1.04-3.05-2.22-4.91-18.09 9-43.59 17.53-61.08 21.71-17.23 4.11-35.22 0.59-42-5.03q-1.23-1.02-1.89-2.05-1.41 3.18-1.68 6.09 0.07 0.06 0.13 0.11c5.6 4.64 15.55 7.43 26.37 7.94z"/>
			</g>
			<path id="&lt;Path&gt;" class="s3" d="m470.07 694.43l-10.51 47.24c3.37-1.58 6.71-3.17 9.84-4.72 13.42-6.65 21.71 4.92 27.94 10.21 2.7-33.95 6.42-89.31 6.42-89.31l-0.41-1.9q-0.81 0.13-1.28 0.25c0.01 0.03-0.03 0-0.03 0-4.35 2.03-9.42 2.03-13.74-0.43-1.6-0.91-2.96-2.07-4.04-3.44-2.66 0.29-7.01 6.17-7.01 6.17z"/>
			<path id="&lt;Path&gt;" class="s4" d="m536.98 720.46c-0.56-4.87-1.18-9.88-1.82-14.85-0.89-6.92-1.84-8.46-2.79-14.69-1.84-11.7-3.78-21.3-5.63-25.32-2.22-4.87-5.88-7.51-9.7-8.85-5.3-1.85-10.93-1.28-13.69-0.8l0.41 1.9c0 0-3.72 55.36-6.42 89.31 1.07 0.94 2.1 1.67 3.08 2.09 6.55 2.73 36.45 9.44 36.45 9.44 0 0 1.87-0.71 4.18 0.55-0.12-1.26-1.04-11.14-2.45-24.23-0.5-4.53-1.02-9.46-1.62-14.55z"/>
			<path id="&lt;Path&gt;" class="s3" d="m517.3 739.1c-0.67 4.52 1.06 8.51 3.87 8.93 2.81 0.42 5.63-2.9 6.3-7.41 0.67-4.51-1.06-8.51-3.87-8.93-2.8-0.42-5.62 2.9-6.3 7.41z"/>
			<path id="&lt;Path&gt;" class="s6" d="m490.8 740.67c0 0-17.33-30.24-31.48 1.11 0 0 7.25-4.26 14.63-5.86 5.52-1.2 6.36-1.01 16.85 4.75z"/>
			<path id="&lt;Path&gt;" class="s5" d="m595.99 643.17c0.82 11.89-6.08 22.05-15.4 22.69-9.32 0.64-17.54-8.48-18.36-20.37-0.81-11.89 6.08-22.04 15.4-22.68 9.33-0.64 17.55 8.48 18.36 20.36z"/>
			<path id="&lt;Path&gt;" class="s5" d="m512.48 647.13c-1.87 11.78-10.82 20.14-20 18.69-9.18-1.46-15.11-12.18-13.25-23.95 1.86-11.77 10.82-20.13 20-18.68 9.18 1.45 15.11 12.17 13.25 23.94z"/>
			<path id="&lt;Path&gt;" class="s14" d="m532.03 599.52l19.76-26"/>
			<path id="&lt;Path&gt;" class="s15" d="m551.55 574.5l-6.81-27.12"/>
		</g>
		<path id="&lt;Path&gt;" class="s3" d="m329.59 533.37c6.59-26.96 26.64-43.94 41.15-53.78 0.63-9.2-5.27-26.62-18.98-35.85-2.32-0.35-5.76-0.56-12.33 4.69-6.58 5.25-16.9 13.92-20.86 18.32-3.96 4.39-30.01 32.62-32.08 62.02l32.85 1.99z"/>
		<path id="&lt;Path&gt;" class="s4" d="m270.45 606.83c-7.24-2.49-9.74-0.65-11.36-18.13-1.62-17.48 7.26-50.14 14.88-64.58 5.76-10.93 20.6-20.33 39.13-15.5 18.53 4.84 25.41 10.76 24.9 21.09-0.51 10.33-4.3 57.24-4.06 65.92 0.24 8.68-8.38 19.31-17.57 18.92-9.19-0.39-45.92-7.72-45.92-7.72z"/>
		<path id="&lt;Path&gt;" class="s5" d="m321.44 606.52c-0.75 7.04-12.37 11.6-25.97 10.16-13.6-1.43-24.02-8.3-23.28-15.35 0.75-7.04 12.37-11.6 25.97-10.16 13.6 1.43 24.02 8.3 23.28 15.35z"/>
		<path id="&lt;Path&gt;" class="s5" d="m313.17 656.23l-28.74-14.71c0 0-8.78-15.68 2.33-22.59 11.11-6.91 29.77-8.79 34.42-1.76 4.64 7.03 2.7 29.13 2.7 29.13z"/>
		<path id="&lt;Path&gt;" class="s3" d="m313.45 606.55c-37.78-13.79-49.84-10.64-60.52 6.7-7.53 12.25-5.1 30.23 1.53 34.78l25.45 14.03 1.53-1.77 3.1-38.52c0 0 11.55-7.44 12.94-7.87 1.39-0.43 15.97-7.35 15.97-7.35z"/>
		<g id="&lt;Group&gt;">
			<path id="&lt;Path&gt;" class="s6" d="m320.56 519.97c4.78 3.14 7.08 8.09 5.13 11.06-1.95 2.97-7.41 2.85-12.19-0.29-4.78-3.13-7.07-8.08-5.12-11.05 1.95-2.98 7.4-2.85 12.18 0.28z"/>
		</g>
		<path id="&lt;Path&gt;" class="s16" d="m285.83 659.7c-11.26-24.55-0.8-49.93 21.49-47.93 18.29 1.64 26.1 20.63 11.14 47.62"/>
		<path id="&lt;Path&gt;" class="s16" d="m776.64 281.68c-1.56 26.97-24.75 48.25-43.51 36.04-15.39-10.02-11.32-34.24 14.54-51.06"/>
		<path id="&lt;Path&gt;" class="s4" d="m303.69 485.96c2.06-4.94 8.52-5.68 13.21-5.13 10.82 0.91 29.26 13.03 25.3 25.53-0.91 1.68-1.98 3.02-3.07 4.55 0.53-2.21 1.88-4.34 1.78-6.61-0.95-11.58-27.91-27.84-37.22-18.34z"/>
		<path id="&lt;Path&gt;" class="s4" d="m326.96 459.05c2.8-4.66 9.4-4.45 14.03-3.2 10.74 2.52 27.47 17.43 21.64 29.4-1.16 1.56-2.43 2.75-3.76 4.12 0.86-2.14 2.54-4.08 2.77-6.38 0.76-11.77-23.92-32.11-34.68-23.94z"/>
		<g id="&lt;Group&gt;">
			<path id="&lt;Path&gt;" class="s4" d="m290.43 509.59c5.14-16 15.3-31.95 28.14-42.84-10.21 13.45-19.62 28.23-28.14 42.84z"/>
		</g>
		<g id="&lt;Group&gt;">
			<path id="&lt;Path&gt;" class="s8" d="m627.13 134.96c2.68-2.04 5.58-0.56 6.78 1.03l0.4 0.49 14.8-1.94c1.85-0.24 2.55-2.56 1.14-3.78l-15.5-13.49 3.75-20.2c0.35-1.84-1.64-3.21-3.24-2.25l-17.62 10.57-18.05-9.81c-1.64-0.89-3.56 0.57-3.14 2.38l4.61 20.03-14.91 14.13c-1.36 1.29-0.56 3.57 1.3 3.73l20.46 1.81 8.84 18.54c0.8 1.69 3.22 1.64 3.95-0.08l5.91-13.91-0.31-0.44c-1.21-1.58-1.85-4.77 0.83-6.81z"/>
			<path id="&lt;Path&gt;" class="s4" d="m692.9 222.54l0.7-0.53c1.44-1.1 4.01-2.58 6.43-3.13l-7.66-9.6q-0.03 0.03-0.06 0.06l-5.73-7.25q0.01-0.02 0.03-0.04l-5.66-7.08q-2.53 1.47-5.32 3.58c-1.97 1.49-3.66 2.98-5.13 4.41l17.81 24.65c1.21-2.07 3.2-4.02 4.59-5.07z"/>
			<path id="&lt;Path&gt;" class="s4" d="m656.24 163.98l-2-2.51q-0.03 0.03-0.05 0.06l-4.13-5.21q0.01-0.02 0.03-0.04l-4.22-5.29q-2 1.14-4.23 2.82-2.37 1.81-4.08 3.55l9.73 13.46q2-1.84 4.46-3.71 2.31-1.75 4.49-3.13z"/>
			<path id="&lt;Path&gt;" class="s4" d="m640.06 143.7l-5.75-7.22-0.4-0.49c-1.2-1.59-4.1-3.07-6.78-1.03-2.68 2.04-2.04 5.23-0.83 6.81l0.31 0.44 5.48 7.58q1.78-1.65 3.98-3.32 2.06-1.56 3.99-2.77z"/>
			<path id="&lt;Path&gt;" class="s4" d="m673.52 185.65l-0.86-1.08q-0.02 0.02-0.04 0.04l-4.88-6.2q0.01 0 0.01 0l-4.92-6.16q-2.26 1.3-4.76 3.18-2.64 2.03-4.59 3.97l10.03 13.89q2.24-2.06 4.98-4.14 2.59-1.96 5.03-3.5z"/>
			<path id="&lt;Path&gt;" class="s8" d="m662.83 172.25c5.68-3.32 10.02-4.09 11.49-3.78-0.09 1.49-1.9 5.38-6.57 9.94q0 0-0.01 0l4.88 6.2q0.02-0.02 0.04-0.04c10.26-9.51 11.69-18.23 8.25-22.76-3.49-4.6-12.48-5.51-24.67 2.17q-2.18 1.38-4.49 3.13-2.46 1.87-4.46 3.71c-10.45 9.59-11.94 18.4-8.47 22.96 3.41 4.49 12.05 5.47 23.78-1.62l-4.6-6.43c-5.44 3.08-9.57 3.79-10.99 3.49 0.09-1.47 1.94-5.34 6.47-9.82q1.95-1.94 4.59-3.97 2.5-1.88 4.76-3.18z"/>
			<path id="&lt;Path&gt;" class="s8" d="m680.95 194.97c6.58-3.87 11.62-4.77 13.31-4.41-0.1 1.71-2.27 6.26-7.65 11.49q-0.02 0.02-0.03 0.04l5.73 7.25q0.03-0.03 0.06-0.06c11.87-10.95 13.53-20.99 9.57-26.2-4.02-5.3-14.38-6.34-28.42 2.57q-2.44 1.54-5.03 3.5-2.74 2.08-4.98 4.14c-12.11 11.05-13.84 21.2-9.85 26.46 3.93 5.17 13.93 6.29 27.51-2l-5.43-7.5c-6.33 3.62-11.16 4.46-12.8 4.11 0.1-1.7 2.26-6.2 7.56-11.4 1.47-1.43 3.16-2.92 5.13-4.41q2.79-2.11 5.32-3.58z"/>
			<path id="&lt;Path&gt;" class="s8" d="m645.87 150.99c4.85-2.81 8.56-3.47 9.81-3.2-0.07 1.27-1.66 4.61-5.59 8.49q-0.02 0.02-0.03 0.04l4.13 5.21q0.02-0.03 0.05-0.06c8.78-8.18 10-15.68 7.04-19.58-3.01-3.96-10.74-4.76-21.22 1.81q-1.93 1.21-3.99 2.77-2.2 1.67-3.98 3.32c-8.92 8.25-10.18 15.81-7.19 19.73 2.93 3.87 10.36 4.73 20.44-1.33l-3.88-5.41c-4.64 2.6-8.16 3.2-9.38 2.94 0.08-1.25 1.64-4.54 5.48-8.36q1.71-1.74 4.08-3.55 2.23-1.68 4.23-2.82z"/>
			<path id="&lt;Path&gt;" class="s3" d="m706.51 258.35c4.53-6.14 10.6-11.28 17.68-13.93-12.58-15.01-21.53-25.7-21.53-25.7-0.8-0.13-1.71-0.05-2.63 0.16-2.42 0.55-4.99 2.03-6.43 3.13l-0.7 0.53c-1.39 1.05-3.38 3-4.59 5.07-0.53 0.93-0.91 1.88-1.01 2.78 0 0 8 11.64 19.21 27.96z"/>
			<path id="&lt;Path&gt;" class="s3" d="m803.36 338.64c-5.05-5.85-30.6-36.27-54.69-65.01-7.36 5.3-14.6 12.86-17.2 21.09 20.09 29.28 40.3 58.77 44.34 64.85 8.49 12.76 19.59 13.94 26.83 8.44l1.65-1.25c7.24-5.5 9.09-16.51-0.93-28.12z"/>
		</g>
		<path id="&lt;Path&gt;" class="s11" d="m360.52 156.75l-0.97 12.62c-0.11 1.37 0.63 2.67 1.86 3.29l7.66 3.81-8.37-0.29c-1.42-0.05-2.72 0.8-3.25 2.12l-4.81 12 1.04-12.87c0.12-1.42-0.67-2.76-1.96-3.35l-7.71-3.52 8.46 0.15c1.4 0.03 2.67-0.8 3.19-2.1z"/>
		<path id="&lt;Path&gt;" class="s11" d="m833.74 278.52l-0.97 12.62c-0.11 1.38 0.63 2.68 1.86 3.29l7.66 3.81-8.36-0.28c-1.43-0.05-2.73 0.8-3.26 2.12l-4.81 11.99 1.04-12.87c0.12-1.41-0.67-2.75-1.96-3.34l-7.7-3.53 8.45 0.16c1.4 0.02 2.67-0.81 3.19-2.1z"/>
		<path id="&lt;Path&gt;" class="s11" d="m362.34 669.45l-0.98 12.62c-0.1 1.37 0.64 2.67 1.87 3.29l7.66 3.81-8.37-0.29c-1.42-0.05-2.72 0.8-3.25 2.12l-4.81 12 1.04-12.87c0.12-1.42-0.67-2.76-1.96-3.35l-7.71-3.52 8.46 0.15c1.4 0.03 2.66-0.81 3.19-2.1z"/>
		<path id="&lt;Path&gt;" class="s11" d="m176.88 373.59l1.59 12.56c0.18 1.36 1.16 2.49 2.49 2.84l8.27 2.19-8.25 1.41c-1.4 0.24-2.5 1.33-2.76 2.73l-2.29 12.72-1.57-12.82c-0.18-1.41-1.22-2.56-2.6-2.88l-8.26-1.9 8.32-1.55c1.37-0.26 2.44-1.33 2.7-2.7z"/>
		<path id="&lt;Path&gt;" class="s8" d="m727.57 158.36l3.32 8.24c0.36 0.89 1.23 1.48 2.19 1.48l6 0.01-5.34 2.43c-0.91 0.41-1.47 1.35-1.39 2.34l0.71 9.04-3.35-8.41c-0.37-0.93-1.28-1.53-2.27-1.5l-5.94 0.19 5.36-2.54c0.89-0.41 1.42-1.33 1.35-2.31z"/>
		<path id="&lt;Path&gt;" class="s8" d="m332.45 314.39l3.32 8.23c0.36 0.9 1.23 1.49 2.19 1.49l6 0.01-5.34 2.42c-0.91 0.41-1.47 1.35-1.39 2.35l0.71 9.03-3.35-8.41c-0.37-0.93-1.28-1.52-2.28-1.49l-5.93 0.18 5.36-2.53c0.89-0.42 1.42-1.34 1.35-2.31z"/>
		<path id="&lt;Path&gt;" class="s11" d="m259.68 235.75l-8.84 12.05 9.17 11.78-14.18-4.68-8.37 12.37 0.07-14.94-14.35-4.14 14.22-4.55-0.49-14.93 8.72 12.13z"/>
		<path id="&lt;Path&gt;" class="s11" d="m475.07 200.93l4.35 14.29 14.93-0.28-12.25 8.55 4.89 14.11-11.92-9-11.91 9 4.88-14.11-12.25-8.55 14.94 0.28z"/>
		<path id="&lt;Path&gt;" class="s11" d="m692.92 554.26l-0.82 12.24 11.55 4.13-11.9 3.01-0.36 12.27-6.53-10.39-11.78 3.45 7.86-9.43-6.92-10.13 11.4 4.56z"/>
		<path id="&lt;Path&gt;" class="s8" d="m113.77 496.81l3.3 6.58 7.23-1.39-5.23 5.18 3.56 6.44-6.55-3.37-5.03 5.37 1.19-7.26-6.66-3.13 7.27-1.11z"/>
		<path id="&lt;Path&gt;" class="s8" d="m757.99 414.49l3.31 6.58 7.22-1.39-5.23 5.18 3.56 6.44-6.54-3.37-5.03 5.37 1.18-7.27-6.66-3.12 7.28-1.12z"/>
		<path id="&lt;Path&gt;" class="s11" d="m599.49 223.06c0 1.95-1.58 3.54-3.53 3.54-1.96 0-3.54-1.59-3.54-3.54 0-1.96 1.58-3.54 3.54-3.54 1.95 0 3.53 1.58 3.53 3.54z"/>
		<path id="&lt;Path&gt;" class="s11" d="m241.65 288.97c0 1.96-1.59 3.54-3.54 3.54-1.96 0-3.54-1.58-3.54-3.54 0-1.95 1.58-3.54 3.54-3.54 1.95 0 3.54 1.59 3.54 3.54z"/>
		<path id="&lt;Path&gt;" class="s11" d="m848.77 326.35c0 1.95-1.58 3.54-3.54 3.54-1.95 0-3.54-1.59-3.54-3.54 0-1.95 1.59-3.54 3.54-3.54 1.96 0 3.54 1.59 3.54 3.54z"/>
		<path id="&lt;Path&gt;" class="s11" d="m446.52 660.11c0 1.95-1.58 3.54-3.54 3.54-1.95 0-3.54-1.59-3.54-3.54 0-1.96 1.59-3.54 3.54-3.54 1.96 0 3.54 1.58 3.54 3.54z"/>
		<path id="&lt;Path&gt;" class="s8" d="m530.22 115.66c0 1.37-1.12 2.49-2.5 2.49-1.37 0-2.49-1.12-2.49-2.49 0-1.38 1.12-2.49 2.49-2.49 1.38 0 2.5 1.11 2.5 2.49z"/>
		<path id="&lt;Path&gt;" class="s8" d="m744.06 548.44c0 1.38-1.11 2.49-2.49 2.49-1.37 0-2.49-1.11-2.49-2.49 0-1.37 1.12-2.49 2.49-2.49 1.38 0 2.49 1.12 2.49 2.49z"/>
		<path id="&lt;Path&gt;" class="s8" d="m446.56 194.94c0 1.38-1.11 2.49-2.49 2.49-1.37 0-2.49-1.11-2.49-2.49 0-1.37 1.12-2.49 2.49-2.49 1.38 0 2.49 1.12 2.49 2.49z"/>
		<path id="&lt;Path&gt;" class="s8" d="m279.05 683.26c0 1.38-1.11 2.49-2.49 2.49-1.38 0-2.49-1.11-2.49-2.49 0-1.37 1.11-2.49 2.49-2.49 1.38 0 2.49 1.12 2.49 2.49z"/>
	</g>
</svg>